<svg xmlns="http://www.w3.org/2000/svg" width="512" height="512" viewBox="0 0 24 24"><path fill="#ffffff" d="M13.823 12.234c-.016.35-.13.688-.331.975a1.697 1.697 0 0 1-.829.643a1.765 1.765 0 0 1-1.053.088a1.803 1.803 0 0 1-.926-.516a1.892 1.892 0 0 1-.468-.976a1.755 1.755 0 0 1 .127-1.043c.144-.327.38-.606.682-.8c.307-.19.662-.291 1.024-.292c.477.026.926.232 1.258.575a1.853 1.853 0 0 1 .516 1.346"/><path fill="#ffffff" d="M17.265 8.002a2.263 2.263 0 0 0-1.248-1.248a2.564 2.564 0 0 0-.887-.175H8.968A2.31 2.31 0 0 0 6.667 8.88v6.279a2.292 2.292 0 0 0 .682 1.628a2.32 2.32 0 0 0 1.619.673h6.162a2.32 2.32 0 0 0 2.123-1.419a2.3 2.3 0 0 0 .178-.882v-6.27a2.553 2.553 0 0 0-.166-.887m-2.437 5.441a2.926 2.926 0 0 1-.644.975c-.28.283-.611.51-.975.673a3.129 3.129 0 0 1-2.486-.028a3.08 3.08 0 0 1-1.765-3.365a3.22 3.22 0 0 1 .829-1.59a3.11 3.11 0 0 1 3.354-.692c.567.23 1.05.628 1.384 1.141a3.03 3.03 0 0 1 .527 1.677c.014.415-.063.827-.224 1.209M15.9 8.626a.555.555 0 1 1-1.102 0a.557.557 0 1 1 1.102 0"/><path fill="#ffffff" d="M16.875 2.25h-9.75A4.875 4.875 0 0 0 2.25 7.125v9.75a4.875 4.875 0 0 0 4.875 4.875h9.75a4.875 4.875 0 0 0 4.875-4.875v-9.75a4.875 4.875 0 0 0-4.875-4.875m2.067 12.812c.01.51-.087 1.019-.283 1.491a3.9 3.9 0 0 1-2.096 2.096c-.473.196-.98.292-1.492.283H9.075a3.754 3.754 0 0 1-1.492-.282a4.007 4.007 0 0 1-1.258-.839a3.9 3.9 0 0 1-.838-1.258a3.725 3.725 0 0 1-.312-1.492V9.018a3.754 3.754 0 0 1 .283-1.492A3.9 3.9 0 0 1 7.535 5.41a3.9 3.9 0 0 1 1.54-.263h6.045a3.802 3.802 0 0 1 2.73 1.121c.357.362.641.79.838 1.258c.195.473.292.98.283 1.492z"/></svg>